PathFileType	3	(X/Y/Z)	Static_01.trc
DataRate	CameraRate	NumFrames	NumMarkers	Units	OrigDataRate	OrigDataStartFrame	OrigNumFrames
200	200	7	32	mm	200	301	400
Frame#	Time	L_ASIS			R_ASIS			L_PSIS			R_PSIS			R_Knee_Med			R_Thigh_Upper			R_Knee_Lat			R_Thigh_Front			R_Thigh_Rear			L_Knee_Med			L_Thigh_Upper			L_Thigh_Front			L_Thigh_Rear			L_Knee_Lat			L_Ankle_Med			L_Shank_Upper			L_Shank_Front			L_Shank_Rear			L_Ankle_Lat			R_Ankle_Med			R_Shank_Upper			R_Shank_Rear			R_Shank_Front			R_Ankle_Lat			R_Heel			R_Toe_Tip			R_Toe_Med			R_Toe_Lat			L_Heel			L_Toe_Tip			L_Toe_Med			L_Toe_Lat			
		X1	Y1	Z1	X2	Y2	Z2	X3	Y3	Z3	X4	Y4	Z4	X5	Y5	Z5	X6	Y6	Z6	X7	Y7	Z7	X8	Y8	Z8	X9	Y9	Z9	X10	Y10	Z10	X11	Y11	Z11	X12	Y12	Z12	X13	Y13	Z13	X14	Y14	Z14	X15	Y15	Z15	X16	Y16	Z16	X17	Y17	Z17	X18	Y18	Z18	X19	Y19	Z19	X20	Y20	Z20	X21	Y21	Z21	X22	Y22	Z22	X23	Y23	Z23	X24	Y24	Z24	X25	Y25	Z25	X26	Y26	Z26	X27	Y27	Z27	X28	Y28	Z28	X29	Y29	Z29	X30	Y30	Z30	X31	Y31	Z31	X32	Y32	Z32
301	1.5	-1222.8616	1000.5751	-1907.3165	-1031.6835	1003.2371	-1709.356	-1299.6728	1045.672	-1735.592	-1211.6239	1054.7054	-1649.0262	-1097.1695	467.17657	-1685.8629	-1043.0233	826.37195	-1595.6644	-1042.3025	502.90348	-1591.6937	-996.36793	772.69359	-1634.4067	-1042.7024	760.5539	-1583.3943	-1264.7325	465.17518	-1783.08	-1334.0384	858.10291	-1885.7827	-1316.4703	785.93669	-1906.0588	-1360.8089	792.10347	-1843.0968	-1341.3863	487.00371	-1854.7342	-1300.7169	74.313126	-1799.0203	-1414.3646	359.88726	-1827.9874	-1387.6586	303.0072	-1848.0612	-1415.8839	290.20792	-1808.005	-1386.0551	66.032744	-1830.8987	-1084.232	77.725148	-1616.5767	-1073.0229	368.59381	-1520.5466	-1104.6402	308.53891	-1516.9736	-1047.9042	304.9833	-1534.9315	-1075.2781	63.516554	-1523.1262	-1146.1309	22.223778	-1525.4896	-956.3201	42.199634	-1629.5448	-966.63337	17.042502	-1654.284	-963.06825	18.192259	-1535.6396	-1392.4485	25.681411	-1760.2548	-1264.0187	38.234546	-1938.6077	-1239.137	14.973968	-1924.5966	-1360.0167	10.939817	-1942.4947
302	1.505	-1222.8827	1000.5803	-1907.2841	-1031.7176	1003.2414	-1709.3252	-1299.7087	1045.6721	-1735.5519	-1211.6856	1054.6977	-1648.9588	-1097.1763	467.1807	-1685.8549	-1043.047	826.37313	-1595.6418	-1042.3054	502.90583	-1591.6865	-996.38367	772.69958	-1634.3865	-1042.7217	760.5543	-1583.3746	-1264.6793	465.20481	-1783.078	-1334.0749	858.11114	-1885.7527	-1316.4965	785.94119	-1906.0351	-1360.8284	792.10954	-1843.0699	-1341.3994	486.99957	-1854.7162	-1300.7135	74.317111	-1799.0206	-1414.3831	359.8857	-1827.9738	-1387.6723	303.00507	-1848.0526	-1415.9041	290.21036	-1807.9894	-1386.0535	66.026961	-1830.9005	-1084.2358	77.720152	-1616.5729	-1073.0234	368.59669	-1520.5395	-1104.6431	308.54148	-1516.9662	-1047.9065	304.98449	-1534.9277	-1075.277	63.516574	-1523.1252	-1146.1309	22.224223	-1525.4888	-956.32024	42.200099	-1629.5442	-966.63573	17.03865	-1654.2852	-963.06666	18.193581	-1535.6402	-1392.4382	25.664622	-1760.2442	-1264.0175	38.235313	-1938.6062	-1239.1385	14.974411	-1924.5953	-1360.0113	10.938513	-1942.4972
303	1.51	-1222.8997	1000.5863	-1907.2523	-1031.7512	1003.247	-1709.2937	-1299.7466	1045.6731	-1735.5108	-1211.7468	1054.6871	-1648.893	-1097.1857	467.18307	-1685.8462	-1043.0705	826.37437	-1595.6191	-1042.3075	502.90891	-1591.6799	-996.3987	772.70651	-1634.3659	-1042.741	760.55505	-1583.3549	-1264.6304	465.23244	-1783.0743	-1334.1086	858.11895	-1885.724	-1316.5207	785.94571	-1906.0123	-1360.847	792.1148	-1843.0444	-1341.413	486.9964	-1854.6956	-1300.7106	74.320389	-1799.0206	-1414.4013	359.88402	-1827.9604	-1387.6855	303.00309	-1848.0441	-1415.9225	290.2121	-1807.9745	-1386.051	66.020612	-1830.9021	-1084.2397	77.714483	-1616.5694	-1073.0239	368.59967	-1520.5331	-1104.6457	308.54475	-1516.9593	-1047.9083	304.98652	-1534.9243	-1075.2762	63.517045	-1523.1246	-1146.1315	22.225193	-1525.4885	-956.32023	42.201541	-1629.5439	-966.6383	17.034732	-1654.2864	-963.06526	18.195249	-1535.6409	-1392.4283	25.647098	-1760.2329	-1264.0163	38.236497	-1938.6049	-1239.1393	14.97576	-1924.5943	-1360.004	10.937887	-1942.5001
304	1.515	-1222.9125	1000.593	-1907.221	-1031.7844	1003.2536	-1709.2614	-1299.7854	1045.6744	-1735.4693	-1211.8062	1054.6737	-1648.8304	-1097.1969	467.18398	-1685.8374	-1043.0938	826.37556	-1595.5962	-1042.309	502.91258	-1591.6739	-996.41318	772.71427	-1634.3451	-1042.7599	760.55612	-1583.3351	-1264.5874	465.25746	-1783.0685	-1334.1395	858.12624	-1885.6963	-1316.5428	785.95035	-1905.9903	-1360.8649	792.11915	-1843.0202	-1341.427	486.99409	-1854.6724	-1300.7081	74.323104	-1799.0202	-1414.4194	359.88222	-1827.9473	-1387.6983	303.0013	-1848.0358	-1415.939	290.21287	-1807.9603	-1386.0478	66.013927	-1830.9036	-1084.2439	77.708289	-1616.5662	-1073.0243	368.60249	-1520.5272	-1104.648	308.54846	-1516.953	-1047.9098	304.98926	-1534.9214	-1075.2757	63.517875	-1523.1244	-1146.1324	22.226447	-1525.4885	-956.32022	42.203732	-1629.5439	-966.64098	17.031041	-1654.2875	-963.06411	18.197222	-1535.6417	-1392.4194	25.629843	-1760.2215	-1264.0152	38.238042	-1938.6036	-1239.1395	14.977906	-1924.5936	-1359.9947	10.938214	-1942.503
305	1.52	-1222.9216	1000.6003	-1907.1903	-1031.8171	1003.2611	-1709.2285	-1299.8242	1045.6752	-1735.4279	-1211.8625	1054.6576	-1648.7722	-1097.2091	467.18356	-1685.8288	-1043.1167	826.37654	-1595.5733	-1042.3099	502.91654	-1591.6684	-996.42719	772.72263	-1634.3243	-1042.7784	760.55739	-1583.3153	-1264.5515	465.27953	-1783.0607	-1334.1679	858.13284	-1885.6694	-1316.5628	785.95518	-1905.969	-1360.882	792.12244	-1842.997	-1341.4415	486.99247	-1854.6467	-1300.7061	74.325398	-1799.0195	-1414.4372	359.88031	-1827.9343	-1387.7108	302.99968	-1848.0278	-1415.9536	290.21245	-1807.947	-1386.0439	66.007138	-1830.9047	-1084.2485	77.701679	-1616.5634	-1073.025	368.60483	-1520.5221	-1104.65	308.55225	-1516.9473	-1047.9108	304.99245	-1534.919	-1075.2756	63.518878	-1523.1246	-1146.1334	22.227649	-1525.4889	-956.32038	42.206278	-1629.5443	-966.64369	17.02785	-1654.2885	-963.06324	18.199371	-1535.6426	-1392.4124	25.61393	-1760.2108	-1264.0145	38.239835	-1938.6023	-1239.1396	14.980536	-1924.5931	-1359.9836	10.939707	-1942.5061
306	1.525	-1222.9281	1000.6078	-1907.1601	-1031.849	1003.2692	-1709.1953	-1299.8621	1045.675	-1735.3871	-1211.9153	1054.6389	-1648.7191	-1097.2218	467.18181	-1685.8206	-1043.1391	826.37715	-1595.5505	-1042.3104	502.92043	-1591.6634	-996.4407	772.73131	-1634.3035	-1042.7961	760.55869	-1583.2954	-1264.5228	465.29855	-1783.0509	-1334.1938	858.13858	-1885.643	-1316.581	785.96014	-1905.9482	-1360.8984	792.1246	-1842.9748	-1341.4563	486.99139	-1854.6189	-1300.7047	74.327378	-1799.0184	-1414.4545	359.87834	-1827.9214	-1387.7228	302.99811	-1848.0201	-1415.9661	290.21086	-1807.9345	-1386.0397	66.000489	-1830.9056	-1084.2535	77.694723	-1616.5609	-1073.0258	368.60634	-1520.5177	-1104.6515	308.55574	-1516.9423	-1047.9115	304.99574	-1534.9172	-1075.2759	63.5198	-1523.125	-1146.1344	22.228447	-1525.4895	-956.32087	42.208673	-1629.5449	-966.64634	17.025331	-1654.2893	-963.0627	18.201494	-1535.6435	-1392.408	25.600228	-1760.2013	-1264.014	38.241715	-1938.6009	-1239.1398	14.983284	-1924.5926	-1359.9707	10.942407	-1942.5092
307	1.53	-1222.9333	1000.6153	-1907.1302	-1031.8801	1003.2775	-1709.1618	-1299.8985	1045.6734	-1735.347	-1211.9647	1054.618	-1648.6705	-1097.2343	467.17872	-1685.8132	-1043.1608	826.37727	-1595.5278	-1042.3104	502.92385	-1591.6588	-996.45363	772.73999	-1634.2828	-1042.8129	760.55978	-1583.2753	-1264.5012	465.31456	-1783.0396	-1334.2176	858.14335	-1885.6172	-1316.5973	785.9651	-1905.9278	-1360.9142	792.12559	-1842.9534	-1341.4711	486.99074	-1854.5895	-1300.7038	74.329081	-1799.0171	-1414.4712	359.87629	-1827.9086	-1387.7343	302.99648	-1848.0128	-1415.9768	290.20834	-1807.9228	-1386.0354	65.994232	-1830.9062	-1084.2593	77.687509	-1616.5586	-1073.0267	368.60674	-1520.5139	-1104.6527	308.5585	-1516.9379	-1047.912	304.99871	-1534.9158	-1075.2766	63.520342	-1523.1255	-1146.1351	22.228528	-1525.4901	-956.32184	42.210406	-1629.5456	-966.64886	17.023517	-1654.2899	-963.06252	18.203341	-1535.6444	-1392.4063	25.589302	-1760.1939	-1264.0138	38.243492	-1938.5994	-1239.1402	14.985801	-1924.5922	-1359.9566	10.946091	-1942.5121
